HIERARCHY
ROOT Hips
{
	OFFSET	0.00	0.00	0.00
	CHANNELS 6 Xposition Yposition Zposition Zrotation Xrotation Yrotation
	JOINT LeftUpLeg
	{
		OFFSET	 0.126116	-0.065224	 0.014019
		CHANNELS 3 Zrotation Xrotation Yrotation
		JOINT LeftLeg
		{
			OFFSET	 0.000000	 0.569914	 0.000000
			CHANNELS 3 Zrotation Xrotation Yrotation
			JOINT LeftFoot
			{
				OFFSET	 0.000000	 0.544423	 0.000000
				CHANNELS 3 Zrotation Xrotation Yrotation
				JOINT LeftToeBase
				{
					OFFSET	 0.000000	 0.207117	 0.000000
					CHANNELS 3 Zrotation Xrotation Yrotation
					End Site
					{
						OFFSET	 0.000000	 0.207117	 0.000000
					}
				}
			}
		}
	}
	JOINT RightUpLeg
	{
		OFFSET	-0.124023	-0.065224	 0.008373
		CHANNELS 3 Zrotation Xrotation Yrotation
		JOINT RightLeg
		{
			OFFSET	 0.000000	 0.570047	 0.000000
			CHANNELS 3 Zrotation Xrotation Yrotation
			JOINT RightFoot
			{
				OFFSET	 0.000000	 0.544354	 0.000000
				CHANNELS 3 Zrotation Xrotation Yrotation
				JOINT RightToeBase
				{
					OFFSET	 0.000000	 0.207540	 0.000000
					CHANNELS 3 Zrotation Xrotation Yrotation
					End Site
					{
						OFFSET	 0.000000	 0.207540	 0.000000
					}
				}
			}
		}
	}
	JOINT Spine
	{
		OFFSET	 0.000184	 0.117403	 0.007763
		CHANNELS 3 Zrotation Xrotation Yrotation
		JOINT Spine1
		{
			OFFSET	 0.000000	 0.137269	 0.000000
			CHANNELS 3 Zrotation Xrotation Yrotation
			JOINT Spine2
			{
				OFFSET	 0.000000	 0.156879	 0.000000
				CHANNELS 3 Zrotation Xrotation Yrotation
				JOINT LeftShoulder
				{
					OFFSET	 0.080501	 0.160143	 0.002496
					CHANNELS 3 Zrotation Xrotation Yrotation
					JOINT LeftArm
					{
						OFFSET	 0.000000	 0.164363	 0.000000
						CHANNELS 3 Zrotation Xrotation Yrotation
						JOINT LeftForeArm
						{
							OFFSET	 0.000000	 0.364576	 0.000000
							CHANNELS 3 Zrotation Xrotation Yrotation
							JOINT LeftHand
							{
								OFFSET	 0.000000	 0.360812	 0.000000
								CHANNELS 3 Zrotation Xrotation Yrotation
								JOINT LeftHandIndex1
								{
									OFFSET	 0.000000	 0.086006	 0.000000
									CHANNELS 3 Zrotation Xrotation Yrotation
									JOINT LeftHandIndex2
									{
										OFFSET	 0.000000	 0.047237	 0.000000
										CHANNELS 3 Zrotation Xrotation Yrotation
										JOINT LeftHandIndex3
										{
											OFFSET	-0.004284	 0.038165	 0.000551
											CHANNELS 3 Zrotation Xrotation Yrotation
											End Site
											{
												OFFSET	-0.004284	 0.038165	 0.000551
											}
										}
									}
								}
							}
						}
					}
				}
				JOINT Neck
				{
					OFFSET	 0.000000	 0.176489	 0.000000
					CHANNELS 3 Zrotation Xrotation Yrotation
					JOINT Head
					{
						OFFSET	 0.000000	 0.077941	 0.001747
						CHANNELS 3 Zrotation Xrotation Yrotation
						End Site
						{
							OFFSET	 0.000000	 0.077941	 0.001747
						}
					}
				}
				JOINT RightShoulder
				{
					OFFSET	-0.080363	 0.159706	-0.000306
					CHANNELS 3 Zrotation Xrotation Yrotation
					JOINT RightArm
					{
						OFFSET	 0.000000	 0.164196	 0.000000
						CHANNELS 3 Zrotation Xrotation Yrotation
						JOINT RightForeArm
						{
							OFFSET	 0.000000	 0.365611	 0.000000
							CHANNELS 3 Zrotation Xrotation Yrotation
							JOINT RightHand
							{
								OFFSET	 0.000000	 0.360648	 0.000000
								CHANNELS 3 Zrotation Xrotation Yrotation
								JOINT RightHandIndex1
								{
									OFFSET	 0.000000	 0.069977	 0.000000
									CHANNELS 3 Zrotation Xrotation Yrotation
									JOINT RightHandIndex2
									{
										OFFSET	 0.000000	 0.052305	 0.000000
										CHANNELS 3 Zrotation Xrotation Yrotation
										JOINT RightHandIndex3
										{
											OFFSET	 0.009002	 0.042196	 0.000782
											CHANNELS 3 Zrotation Xrotation Yrotation
											End Site
											{
												OFFSET	 0.009002	 0.042196	 0.000782
											}
										}
									}
								}
							}
						}
					}
				}
			}
		}
	}
}
MOTION
Frames:    7
Frame Time: 0.03333334
-0.001252	 1.269450	-0.008691	 0.073352	 3.209958	 178.802700	 175.714300	 2.830663	 13.759790	 3.241760	-15.983630	 2.919423	-2.373594	 70.478800	 5.981128	 1.331492	 28.938720	-2.729976	-175.829900	 3.181489	-10.274500	-4.997087	-16.032840	-6.428678	-0.367435	 70.025460	-0.858167	-1.305360	 28.580650	 2.604738	-0.829283	 3.088610	-9.611827	-2.009403	 4.120126	-5.637456	-1.622875	-3.925425	 12.400640	-113.447100	 5.126552	 93.000160	 4.485386	 51.962470	 39.683510	 20.814690	-1.053159	 0.103738	-23.666730	-14.442540	-49.388770	-6.580301	 5.266122	 0.000000	 0.000000	 0.000000	 0.000000	 0.000000	 0.000000	 0.000000	 3.830036	-0.644349	-0.250160	 3.229475	 0.750708	 4.750184	 114.205700	-4.428507	-88.482400	-47.840980	 15.933330	 45.978280	-94.211490	-2.246842	-2.354035	-34.215440	-19.327180	 3.347317	-0.359781	 10.582440	 0.744568	 11.977790	 9.317309	-2.096065	-8.359142	 3.150336	 0.104224
-0.001226	 1.269452	-0.008729	 0.084606	 3.209741	 178.789700	 175.724900	 2.836309	 13.745840	 3.245278	-16.000100	 2.914640	-2.391910	 70.491650	 5.999891	 1.331492	 28.938720	-2.729976	-175.820600	 3.172501	-10.281980	-4.990878	-16.014010	-6.436319	-0.392123	 70.015690	-0.831778	-1.305364	 28.580670	 2.603754	-0.822272	 3.009201	-9.576279	-2.014860	 4.362084	-5.626038	-1.599077	-4.257029	 12.363660	-113.447100	 5.124465	 92.999690	 4.191914	 51.958890	 39.953620	 20.905560	-1.056969	 0.088500	-23.560030	-14.761940	-49.394210	-6.580301	 5.266122	 0.000000	 0.000000	 0.000000	 0.000000	 0.000000	 0.000000	 0.000000	 3.833433	-0.652141	-0.251218	 3.244320	 0.716824	 4.735920	 114.205100	-4.424396	-88.485370	-47.571500	 16.061640	 45.476850	-94.584660	-2.245179	-2.351801	-35.076680	-19.595040	 2.725705	-0.359781	 10.582420	 0.744568	 11.977790	 9.317290	-2.096061	-8.359142	 3.150326	 0.104225
-0.001190	 1.269453	-0.008775	 0.097120	 3.210028	 178.773900	 175.737200	 2.841840	 13.728860	 3.249176	-16.018230	 2.908823	-2.414243	 70.506260	 6.022674	 1.331492	 28.938720	-2.729976	-175.809800	 3.161643	-10.290920	-4.983846	-15.992670	-6.445710	-0.422210	 70.004630	-0.799782	-1.305368	 28.580690	 2.602565	-0.815548	 2.928341	-9.530237	-2.019955	 4.609044	-5.608902	-1.575203	-4.595052	 12.312380	-113.447100	 5.121958	 92.999150	 3.889430	 51.953400	 40.234210	 21.015300	-1.061503	 0.070243	-23.449320	-15.088840	-49.369170	-6.580301	 5.266122	 0.000000	 0.000000	 0.000000	 0.000000	 0.000000	 0.000000	 0.000000	 3.837537	-0.661557	-0.252496	 3.261752	 0.684060	 4.716452	 114.204400	-4.419384	-88.489010	-47.254360	 16.198070	 44.854130	-95.075110	-2.242994	-2.350659	-36.043790	-19.879990	 1.944891	-0.359780	 10.582390	 0.744568	 11.977790	 9.317265	-2.096056	-8.359142	 3.150313	 0.104226
-0.001142	 1.269455	-0.008832	 0.110652	 3.210426	 178.755900	 175.751200	 2.847287	 13.709460	 3.253250	-16.037300	 2.901905	-2.439936	 70.522260	 6.048764	 1.331492	 28.938720	-2.729976	-175.797800	 3.149276	-10.301140	-4.975997	-15.968810	-6.456744	-0.457631	 69.992330	-0.762390	-1.305374	 28.580720	 2.601185	-0.809418	 2.847432	-9.474000	-2.024236	 4.855028	-5.585983	-1.552076	-4.933090	 12.247270	-113.447200	 5.119021	 92.998500	 3.582722	 51.946210	 40.520770	 21.144200	-1.066859	 0.048977	-23.337820	-15.417740	-49.311820	-6.580301	 5.266122	 0.000000	 0.000000	 0.000000	 0.000000	 0.000000	 0.000000	 0.000000	 3.842299	-0.672483	-0.253978	 3.281546	 0.652963	 4.691855	 114.203500	-4.413566	-88.493210	-46.893740	 16.345540	 44.106830	-95.695310	-2.240069	-2.351357	-37.093460	-20.172550	 0.996024	-0.359779	 10.582370	 0.744568	 11.977790	 9.317236	-2.096050	-8.359141	 3.150297	 0.104228
-0.001080	 1.269458	-0.008901	 0.125039	 3.211149	 178.735500	 175.766600	 2.852747	 13.687460	 3.257672	-16.057930	 2.894097	-2.469421	 70.540000	 6.078493	 1.331492	 28.938720	-2.729976	-175.784400	 3.135344	-10.312640	-4.967429	-15.942810	-6.469251	-0.498075	 69.978950	-0.720035	-1.305380	 28.580760	 2.599627	-0.803962	 2.766803	-9.408401	-2.028314	 5.099334	-5.557780	-1.529492	-5.269049	 12.168890	-113.447200	 5.115738	 92.997790	 3.274117	 51.937110	 40.811200	 21.293450	-1.073059	 0.025178	-23.228750	-15.745410	-49.223560	-6.580301	 5.266122	 0.000000	 0.000000	 0.000000	 0.000000	 0.000000	 0.000000	 0.000000	 3.847673	-0.684814	-0.255650	 3.303503	 0.623797	 4.662448	 114.202600	-4.407023	-88.497930	-46.494890	 16.505910	 43.230220	-96.455850	-2.236131	-2.354432	-38.205770	-20.463690	-0.130950	-0.359778	 10.582330	 0.744568	 11.977790	 9.317203	-2.096044	-8.359140	 3.150280	 0.104229
-0.001003	 1.269461	-0.008979	 0.140291	 3.212125	 178.713000	 175.783800	 2.857689	 13.662970	 3.262103	-16.078660	 2.885226	-2.502673	 70.558650	 6.111876	 1.331492	 28.938720	-2.729976	-175.769800	 3.119844	-10.325170	-4.958149	-15.914550	-6.483401	-0.543604	 69.964420	-0.672754	-1.305386	 28.580800	 2.597890	-0.799162	 2.685931	-9.333438	-2.032893	 5.343020	-5.524355	-1.507127	-5.604004	 12.077050	-113.447300	 5.112051	 92.996980	 2.961580	 51.925520	 41.107010	 21.466500	-1.080307	-0.001283	-23.123800	-16.072890	-49.103860	-6.580301	 5.266122	 0.000000	 0.000000	 0.000000	 0.000000	 0.000000	 0.000000	 0.000000	 3.853664	-0.698563	-0.257512	 3.327659	 0.596419	 4.628176	 114.201500	-4.399722	-88.503230	-46.059890	 16.680620	 42.210640	-97.372290	-2.230971	-2.360535	-39.371560	-20.745360	-1.457421	-0.359777	 10.582300	 0.744568	 11.977790	 9.317167	-2.096036	-8.359140	 3.150261	 0.104231
-0.000909	 1.269465	-0.009074	 0.156513	 3.213372	 178.687700	 175.802800	 2.862345	 13.635610	 3.266804	-16.100520	 2.875353	-2.539659	 70.579020	 6.148708	 1.331492	 28.938720	-2.729976	-175.753500	 3.102412	-10.339400	-4.948030	-15.883820	-6.499209	-0.595390	 69.948760	-0.619465	-1.305394	 28.580840	 2.595952	-0.795152	 2.604225	-9.247920	-2.037772	 5.586801	-5.484985	-1.485047	-5.940742	 11.970350	-113.447400	 5.107936	 92.996070	 2.641622	 51.911580	 41.411550	 21.667300	-1.088733	-0.030613	-23.023770	-16.403470	-48.950160	-6.580301	 5.266122	 0.000000	 0.000000	 0.000000	 0.000000	 0.000000	 0.000000	 0.000000	 3.860349	-0.713905	-0.259589	 3.354306	 0.570500	 4.588501	 114.200300	-4.391568	-88.509120	-45.586780	 16.871040	 41.020850	-98.470380	-2.224086	-2.370101	-40.591960	-21.007950	-3.022422	-0.359775	 10.582250	 0.744568	 11.977790	 9.317126	-2.096028	-8.359139	 3.150239	 0.104233
